<svg xmlns="http://www.w3.org/2000/svg" xmlns:xlink="http://www.w3.org/1999/xlink" width="624" zoomAndPan="magnify" viewBox="0 0 468 147.750002" height="197" preserveAspectRatio="xMidYMid meet" version="1.2"><defs/><g id="7446504a4e"><g style="fill:#000000;fill-opacity:1;"><g transform="translate(60.012777, 104.176064)"><path style="stroke:none" d="M 21.21875 -48.890625 C 24.03125 -48.890625 26.765625 -48.472656 29.421875 -47.640625 C 32.015625 -46.816406 34.5 -45.546875 36.875 -43.828125 C 39.195312 -42.066406 41.070312 -39.609375 42.5 -36.453125 C 43.9375 -33.253906 44.65625 -29.554688 44.65625 -25.359375 C 44.65625 -21.429688 44.160156 -17.953125 43.171875 -14.921875 C 42.171875 -11.828125 40.898438 -9.367188 39.359375 -7.546875 C 37.804688 -5.722656 36.007812 -4.226562 33.96875 -3.0625 C 31.875 -1.90625 29.882812 -1.101562 28 -0.65625 C 26.070312 -0.21875 24.140625 0 22.203125 0 L 8.953125 0 C 7.953125 0 7.125 -0.359375 6.46875 -1.078125 C 5.75 -1.796875 5.390625 -2.648438 5.390625 -3.640625 L 5.390625 -45.234375 C 5.390625 -46.234375 5.75 -47.09375 6.46875 -47.8125 C 7.125 -48.53125 7.953125 -48.890625 8.953125 -48.890625 Z M 21.125 -6.796875 C 22.675781 -6.796875 24.085938 -6.90625 25.359375 -7.125 C 26.628906 -7.289062 28.0625 -7.757812 29.65625 -8.53125 C 31.257812 -9.25 32.585938 -10.242188 33.640625 -11.515625 C 34.691406 -12.734375 35.601562 -14.53125 36.375 -16.90625 C 37.09375 -19.226562 37.453125 -21.960938 37.453125 -25.109375 C 37.453125 -31.015625 35.929688 -35.320312 32.890625 -38.03125 C 29.796875 -40.738281 25.957031 -42.09375 21.375 -42.09375 L 12.59375 -42.09375 L 12.59375 -6.796875 Z M 21.125 -6.796875 "/></g></g><g style="fill:#000000;fill-opacity:1;"><g transform="translate(108.812612, 104.176064)"><path style="stroke:none" d="M 29 -6.875 C 29.882812 -6.875 30.660156 -6.546875 31.328125 -5.890625 C 31.929688 -5.222656 32.234375 -4.445312 32.234375 -3.5625 C 32.234375 -2.726562 31.984375 -2.035156 31.484375 -1.484375 C 30.984375 -0.878906 30.347656 -0.523438 29.578125 -0.421875 C 26.867188 0.191406 23.832031 0.5 20.46875 0.5 C 14.945312 0.5 10.773438 -1.128906 7.953125 -4.390625 C 5.140625 -7.597656 3.734375 -11.742188 3.734375 -16.828125 C 3.734375 -21.847656 5.082031 -25.988281 7.78125 -29.25 C 10.4375 -32.457031 14.25 -34.0625 19.21875 -34.0625 C 24.195312 -34.0625 28.007812 -32.675781 30.65625 -29.90625 C 33.25 -27.09375 34.546875 -23.421875 34.546875 -18.890625 C 34.546875 -17.515625 34.023438 -16.328125 32.984375 -15.328125 C 31.929688 -14.335938 30.6875 -13.84375 29.25 -13.84375 L 10.9375 -13.84375 C 11.539062 -11.070312 12.644531 -9.132812 14.25 -8.03125 C 15.851562 -6.875 18.753906 -6.296875 22.953125 -6.296875 C 24.109375 -6.296875 26.125 -6.488281 29 -6.875 Z M 27.421875 -20.046875 C 26.929688 -22.753906 26.019531 -24.632812 24.6875 -25.6875 C 23.363281 -26.738281 21.515625 -27.265625 19.140625 -27.265625 C 16.710938 -27.265625 14.863281 -26.679688 13.59375 -25.515625 C 12.320312 -24.359375 11.4375 -22.535156 10.9375 -20.046875 Z M 27.421875 -20.046875 "/></g></g><g style="fill:#000000;fill-opacity:1;"><g transform="translate(147.504493, 104.176064)"><path style="stroke:none" d="M 18.0625 0 C 15.1875 0 13.195312 -1.328125 12.09375 -3.984375 L 1.90625 -28.59375 C 1.738281 -28.976562 1.65625 -29.445312 1.65625 -30 C 1.65625 -31.039062 1.988281 -31.894531 2.65625 -32.5625 C 3.3125 -33.226562 4.164062 -33.5625 5.21875 -33.5625 C 6.988281 -33.5625 8.148438 -32.816406 8.703125 -31.328125 L 18.0625 -6.875 L 27.421875 -31.328125 C 27.972656 -32.816406 29.132812 -33.5625 30.90625 -33.5625 C 31.957031 -33.5625 32.8125 -33.226562 33.46875 -32.5625 C 34.132812 -31.894531 34.46875 -31.039062 34.46875 -30 C 34.46875 -29.445312 34.382812 -28.976562 34.21875 -28.59375 L 24.03125 -3.984375 C 22.925781 -1.328125 20.9375 0 18.0625 0 Z M 18.0625 0 "/></g></g><g style="fill:#000000;fill-opacity:1;"><g transform="translate(183.627963, 104.176064)"><path style="stroke:none" d="M 20.390625 0.5 C 19.003906 0.5 17.617188 0.332031 16.234375 0 C 14.804688 -0.28125 13.34375 -0.832031 11.84375 -1.65625 C 10.300781 -2.488281 8.945312 -3.539062 7.78125 -4.8125 C 6.625 -6.082031 5.660156 -7.789062 4.890625 -9.9375 C 4.117188 -12.039062 3.734375 -14.445312 3.734375 -17.15625 C 3.734375 -22.625 5.472656 -26.820312 8.953125 -29.75 C 12.378906 -32.625 16.191406 -34.0625 20.390625 -34.0625 C 24.585938 -34.0625 28.425781 -32.625 31.90625 -29.75 C 35.320312 -26.820312 37.03125 -22.625 37.03125 -17.15625 C 37.03125 -14.445312 36.644531 -12.039062 35.875 -9.9375 C 35.101562 -7.789062 34.140625 -6.082031 32.984375 -4.8125 C 31.816406 -3.539062 30.488281 -2.488281 29 -1.65625 C 27.457031 -0.832031 25.992188 -0.28125 24.609375 0 C 23.171875 0.332031 21.765625 0.5 20.390625 0.5 Z M 20.390625 -6.296875 C 26.679688 -6.296875 29.828125 -9.859375 29.828125 -16.984375 C 29.828125 -20.578125 28.890625 -23.203125 27.015625 -24.859375 C 25.078125 -26.460938 22.867188 -27.265625 20.390625 -27.265625 C 17.898438 -27.265625 15.71875 -26.460938 13.84375 -24.859375 C 11.90625 -23.203125 10.9375 -20.578125 10.9375 -16.984375 C 10.9375 -9.859375 14.085938 -6.296875 20.390625 -6.296875 Z M 20.390625 -6.296875 "/></g></g><g style="fill:#000000;fill-opacity:1;"><g transform="translate(224.391153, 104.176064)"><path style="stroke:none" d="M 4.96875 -29.90625 C 4.96875 -30.90625 5.328125 -31.765625 6.046875 -32.484375 C 6.710938 -33.203125 7.539062 -33.5625 8.53125 -33.5625 C 10.46875 -33.5625 11.6875 -32.289062 12.1875 -29.75 C 15 -32.625 18.890625 -34.0625 23.859375 -34.0625 C 26.785156 -34.0625 29.46875 -32.84375 31.90625 -30.40625 C 34.332031 -27.976562 35.546875 -25.078125 35.546875 -21.703125 L 35.546875 -3.640625 C 35.546875 -2.648438 35.1875 -1.796875 34.46875 -1.078125 C 33.75 -0.359375 32.894531 0 31.90625 0 C 30.90625 0 30.078125 -0.359375 29.421875 -1.078125 C 28.703125 -1.796875 28.34375 -2.648438 28.34375 -3.640625 L 28.34375 -20.796875 C 28.34375 -23.054688 27.648438 -24.710938 26.265625 -25.765625 C 24.878906 -26.765625 23.304688 -27.265625 21.546875 -27.265625 C 20.328125 -27.265625 19.191406 -27.070312 18.140625 -26.6875 C 17.035156 -26.238281 16.15625 -25.710938 15.5 -25.109375 C 14.78125 -24.492188 14.171875 -23.882812 13.671875 -23.28125 C 13.117188 -22.675781 12.734375 -22.148438 12.515625 -21.703125 L 12.1875 -21.125 L 12.1875 -3.640625 C 12.1875 -2.648438 11.828125 -1.796875 11.109375 -1.078125 C 10.390625 -0.359375 9.53125 0 8.53125 0 C 7.539062 0 6.710938 -0.359375 6.046875 -1.078125 C 5.328125 -1.796875 4.96875 -2.648438 4.96875 -3.640625 Z M 4.96875 -29.90625 "/></g></g><g style="fill:#000000;fill-opacity:1;"><g transform="translate(264.491536, 104.176064)"><path style="stroke:none" d=""/></g></g><g style="fill:#000000;fill-opacity:1;"><g transform="translate(280.979065, 104.176064)"><path style="stroke:none" d="M 12.59375 -37.53125 L 12.59375 -3.5625 C 12.59375 -2.570312 12.234375 -1.742188 11.515625 -1.078125 C 10.796875 -0.359375 9.941406 0 8.953125 0 C 7.953125 0 7.125 -0.359375 6.46875 -1.078125 C 5.75 -1.742188 5.390625 -2.570312 5.390625 -3.5625 L 5.390625 -43.421875 C 5.390625 -44.910156 5.910156 -46.207031 6.953125 -47.3125 C 8.003906 -48.363281 9.273438 -48.890625 10.765625 -48.890625 C 12.753906 -48.890625 14.21875 -48.144531 15.15625 -46.65625 L 39.359375 -10.9375 L 39.359375 -45.328125 C 39.359375 -46.316406 39.71875 -47.171875 40.4375 -47.890625 C 41.15625 -48.554688 42.007812 -48.890625 43 -48.890625 C 44 -48.890625 44.859375 -48.554688 45.578125 -47.890625 C 46.234375 -47.171875 46.5625 -46.316406 46.5625 -45.328125 L 46.5625 -5.46875 C 46.5625 -3.976562 46.039062 -2.707031 45 -1.65625 C 43.945312 -0.550781 42.675781 0 41.1875 0 C 39.363281 0 37.898438 -0.742188 36.796875 -2.234375 Z M 12.59375 -37.53125 "/></g></g><g style="fill:#000000;fill-opacity:1;"><g transform="translate(332.927267, 104.176064)"><path style="stroke:none" d="M 26.84375 -3.5625 C 24.082031 -0.851562 20.160156 0.5 15.078125 0.5 L 14.09375 0.5 C 13.59375 0.5 13.007812 0.441406 12.34375 0.328125 C 11.625 0.222656 10.710938 -0.0507812 9.609375 -0.5 C 8.503906 -0.9375 7.507812 -1.539062 6.625 -2.3125 C 5.738281 -3.03125 4.96875 -4.109375 4.3125 -5.546875 C 3.644531 -6.984375 3.3125 -8.671875 3.3125 -10.609375 C 3.3125 -13.535156 4.25 -15.960938 6.125 -17.890625 C 8.007812 -19.773438 10.742188 -20.71875 14.328125 -20.71875 C 19.140625 -20.71875 23.3125 -19.582031 26.84375 -17.3125 L 26.84375 -20.046875 C 26.84375 -22.367188 25.988281 -24.164062 24.28125 -25.4375 C 22.507812 -26.65625 19.304688 -27.265625 14.671875 -27.265625 C 13.234375 -27.265625 11.601562 -27.097656 9.78125 -26.765625 C 8.894531 -26.765625 8.148438 -27.066406 7.546875 -27.671875 C 6.929688 -28.222656 6.625 -28.96875 6.625 -29.90625 C 6.625 -31.625 7.398438 -32.675781 8.953125 -33.0625 C 11.210938 -33.726562 14.164062 -34.0625 17.8125 -34.0625 C 22.945312 -34.0625 26.953125 -32.875 29.828125 -30.5 C 32.648438 -28.113281 34.0625 -24.710938 34.0625 -20.296875 L 34.0625 -3.5625 C 34.0625 -2.570312 33.703125 -1.742188 32.984375 -1.078125 C 32.265625 -0.359375 31.40625 0 30.40625 0 C 29.414062 0 28.585938 -0.359375 27.921875 -1.078125 C 27.203125 -1.742188 26.84375 -2.570312 26.84375 -3.5625 Z M 26.84375 -11.4375 C 24.800781 -13.363281 21.816406 -14.328125 17.890625 -14.328125 C 14.960938 -14.328125 13.003906 -14 12.015625 -13.34375 C 11.015625 -12.675781 10.515625 -11.679688 10.515625 -10.359375 C 10.515625 -7.648438 12.972656 -6.296875 17.890625 -6.296875 C 19.941406 -6.296875 21.710938 -6.570312 23.203125 -7.125 C 24.691406 -7.625 25.6875 -8.125 26.1875 -8.625 L 26.84375 -9.453125 Z M 26.84375 -11.4375 "/></g></g><g style="fill:#000000;fill-opacity:1;"><g transform="translate(371.95057, 104.176064)"><path style="stroke:none" d="M 5.390625 -45.234375 C 5.390625 -46.234375 5.75 -47.09375 6.46875 -47.8125 C 7.125 -48.53125 7.953125 -48.890625 8.953125 -48.890625 C 9.941406 -48.890625 10.796875 -48.53125 11.515625 -47.8125 C 12.234375 -47.09375 12.59375 -46.234375 12.59375 -45.234375 L 12.59375 -3.640625 C 12.59375 -2.648438 12.234375 -1.796875 11.515625 -1.078125 C 10.796875 -0.359375 9.941406 0 8.953125 0 C 7.953125 0 7.125 -0.359375 6.46875 -1.078125 C 5.75 -1.796875 5.390625 -2.648438 5.390625 -3.640625 Z M 5.390625 -45.234375 "/></g></g><g style="fill:#000000;fill-opacity:1;"><g transform="translate(389.929464, 104.176064)"><path style="stroke:none" d="M 5.390625 -45.234375 C 5.390625 -46.234375 5.75 -47.09375 6.46875 -47.8125 C 7.125 -48.53125 7.953125 -48.890625 8.953125 -48.890625 C 9.941406 -48.890625 10.796875 -48.53125 11.515625 -47.8125 C 12.234375 -47.09375 12.59375 -46.234375 12.59375 -45.234375 L 12.59375 -3.640625 C 12.59375 -2.648438 12.234375 -1.796875 11.515625 -1.078125 C 10.796875 -0.359375 9.941406 0 8.953125 0 C 7.953125 0 7.125 -0.359375 6.46875 -1.078125 C 5.75 -1.796875 5.390625 -2.648438 5.390625 -3.640625 Z M 5.390625 -45.234375 "/></g></g></g></svg>