<svg xmlns="http://www.w3.org/2000/svg" xmlns:xlink="http://www.w3.org/1999/xlink" width="635" zoomAndPan="magnify" viewBox="0 0 476.25 171.000002" height="228" preserveAspectRatio="xMidYMid meet" version="1.2"><defs/><g id="1eed1c93b0"><g style="fill:#000000;fill-opacity:1;"><g transform="translate(37.020239, 121.126376)"><path style="stroke:none" d="M 24.4375 -56.3125 C 27.675781 -56.3125 30.820312 -55.832031 33.875 -54.875 C 36.863281 -53.914062 39.726562 -52.453125 42.46875 -50.484375 C 45.144531 -48.453125 47.304688 -45.625 48.953125 -42 C 50.609375 -38.300781 51.4375 -34.035156 51.4375 -29.203125 C 51.4375 -24.679688 50.863281 -20.671875 49.71875 -17.171875 C 48.570312 -13.609375 47.109375 -10.78125 45.328125 -8.6875 C 43.546875 -6.582031 41.476562 -4.863281 39.125 -3.53125 C 36.707031 -2.195312 34.421875 -1.273438 32.265625 -0.765625 C 30.035156 -0.253906 27.804688 0 25.578125 0 L 10.3125 0 C 9.164062 0 8.207031 -0.410156 7.4375 -1.234375 C 6.613281 -2.066406 6.203125 -3.054688 6.203125 -4.203125 L 6.203125 -52.109375 C 6.203125 -53.253906 6.613281 -54.238281 7.4375 -55.0625 C 8.207031 -55.894531 9.164062 -56.3125 10.3125 -56.3125 Z M 24.34375 -7.828125 C 26.125 -7.828125 27.742188 -7.953125 29.203125 -8.203125 C 30.671875 -8.398438 32.328125 -8.941406 34.171875 -9.828125 C 36.015625 -10.660156 37.539062 -11.804688 38.75 -13.265625 C 39.957031 -14.660156 41.003906 -16.726562 41.890625 -19.46875 C 42.722656 -22.144531 43.140625 -25.296875 43.140625 -28.921875 C 43.140625 -35.722656 41.390625 -40.6875 37.890625 -43.8125 C 34.328125 -46.925781 29.90625 -48.484375 24.625 -48.484375 L 14.5 -48.484375 L 14.5 -7.828125 Z M 24.34375 -7.828125 "/></g></g><g style="fill:#000000;fill-opacity:1;"><g transform="translate(93.228597, 121.126376)"><path style="stroke:none" d="M 33.40625 -7.921875 C 34.425781 -7.921875 35.316406 -7.539062 36.078125 -6.78125 C 36.773438 -6.007812 37.125 -5.117188 37.125 -4.109375 C 37.125 -3.148438 36.835938 -2.351562 36.265625 -1.71875 C 35.691406 -1.019531 34.960938 -0.609375 34.078125 -0.484375 C 30.953125 0.222656 27.453125 0.578125 23.578125 0.578125 C 17.210938 0.578125 12.40625 -1.300781 9.15625 -5.0625 C 5.914062 -8.75 4.296875 -13.519531 4.296875 -19.375 C 4.296875 -25.164062 5.851562 -29.9375 8.96875 -33.6875 C 12.019531 -37.375 16.410156 -39.21875 22.140625 -39.21875 C 27.867188 -39.21875 32.257812 -37.628906 35.3125 -34.453125 C 38.300781 -31.203125 39.796875 -26.972656 39.796875 -21.765625 C 39.796875 -20.171875 39.191406 -18.800781 37.984375 -17.65625 C 36.773438 -16.507812 35.34375 -15.9375 33.6875 -15.9375 L 12.59375 -15.9375 C 13.289062 -12.757812 14.566406 -10.53125 16.421875 -9.25 C 18.265625 -7.914062 21.601562 -7.25 26.4375 -7.25 C 27.769531 -7.25 30.09375 -7.472656 33.40625 -7.921875 Z M 31.59375 -23.09375 C 31.019531 -26.207031 29.96875 -28.367188 28.4375 -29.578125 C 26.914062 -30.796875 24.785156 -31.40625 22.046875 -31.40625 C 19.242188 -31.40625 17.113281 -30.734375 15.65625 -29.390625 C 14.1875 -28.054688 13.164062 -25.957031 12.59375 -23.09375 Z M 31.59375 -23.09375 "/></g></g><g style="fill:#000000;fill-opacity:1;"><g transform="translate(137.794472, 121.126376)"><path style="stroke:none" d="M 20.8125 0 C 17.5 0 15.207031 -1.523438 13.9375 -4.578125 L 2.1875 -32.921875 C 2 -33.367188 1.90625 -33.910156 1.90625 -34.546875 C 1.90625 -35.753906 2.285156 -36.738281 3.046875 -37.5 C 3.816406 -38.269531 4.804688 -38.65625 6.015625 -38.65625 C 8.046875 -38.65625 9.378906 -37.796875 10.015625 -36.078125 L 20.8125 -7.921875 L 31.59375 -36.078125 C 32.226562 -37.796875 33.5625 -38.65625 35.59375 -38.65625 C 36.800781 -38.65625 37.789062 -38.269531 38.5625 -37.5 C 39.320312 -36.738281 39.703125 -35.753906 39.703125 -34.546875 C 39.703125 -33.910156 39.609375 -33.367188 39.421875 -32.921875 L 27.671875 -4.578125 C 26.398438 -1.523438 24.113281 0 20.8125 0 Z M 20.8125 0 "/></g></g><g style="fill:#000000;fill-opacity:1;"><g transform="translate(179.402012, 121.126376)"><path style="stroke:none" d="M 23.484375 0.578125 C 21.890625 0.578125 20.296875 0.382812 18.703125 0 C 17.046875 -0.320312 15.359375 -0.957031 13.640625 -1.90625 C 11.859375 -2.863281 10.300781 -4.070312 8.96875 -5.53125 C 7.632812 -7 6.519531 -8.972656 5.625 -11.453125 C 4.738281 -13.867188 4.296875 -16.632812 4.296875 -19.75 C 4.296875 -26.050781 6.300781 -30.890625 10.3125 -34.265625 C 14.25 -37.566406 18.640625 -39.21875 23.484375 -39.21875 C 28.316406 -39.21875 32.738281 -37.566406 36.75 -34.265625 C 40.6875 -30.890625 42.65625 -26.050781 42.65625 -19.75 C 42.65625 -16.632812 42.210938 -13.867188 41.328125 -11.453125 C 40.429688 -8.972656 39.316406 -7 37.984375 -5.53125 C 36.648438 -4.070312 35.125 -2.863281 33.40625 -1.90625 C 31.625 -0.957031 29.9375 -0.320312 28.34375 0 C 26.6875 0.382812 25.066406 0.578125 23.484375 0.578125 Z M 23.484375 -7.25 C 30.734375 -7.25 34.359375 -11.351562 34.359375 -19.5625 C 34.359375 -23.695312 33.273438 -26.71875 31.109375 -28.625 C 28.878906 -30.476562 26.335938 -31.40625 23.484375 -31.40625 C 20.617188 -31.40625 18.101562 -30.476562 15.9375 -28.625 C 13.707031 -26.71875 12.59375 -23.695312 12.59375 -19.5625 C 12.59375 -11.351562 16.222656 -7.25 23.484375 -7.25 Z M 23.484375 -7.25 "/></g></g><g style="fill:#000000;fill-opacity:1;"><g transform="translate(226.353636, 121.126376)"><path style="stroke:none" d="M 5.71875 -34.453125 C 5.71875 -35.597656 6.132812 -36.582031 6.96875 -37.40625 C 7.726562 -38.238281 8.679688 -38.65625 9.828125 -38.65625 C 12.054688 -38.65625 13.457031 -37.191406 14.03125 -34.265625 C 17.269531 -37.566406 21.753906 -39.21875 27.484375 -39.21875 C 30.859375 -39.21875 33.945312 -37.820312 36.75 -35.03125 C 39.539062 -32.226562 40.9375 -28.882812 40.9375 -25 L 40.9375 -4.203125 C 40.9375 -3.054688 40.523438 -2.066406 39.703125 -1.234375 C 38.878906 -0.410156 37.894531 0 36.75 0 C 35.601562 0 34.644531 -0.410156 33.875 -1.234375 C 33.050781 -2.066406 32.640625 -3.054688 32.640625 -4.203125 L 32.640625 -23.953125 C 32.640625 -26.566406 31.84375 -28.476562 30.25 -29.6875 C 28.664062 -30.832031 26.851562 -31.40625 24.8125 -31.40625 C 23.414062 -31.40625 22.113281 -31.179688 20.90625 -30.734375 C 19.625 -30.222656 18.601562 -29.617188 17.84375 -28.921875 C 17.019531 -28.222656 16.320312 -27.519531 15.75 -26.8125 C 15.113281 -26.113281 14.664062 -25.507812 14.40625 -25 L 14.03125 -24.34375 L 14.03125 -4.203125 C 14.03125 -3.054688 13.613281 -2.066406 12.78125 -1.234375 C 11.957031 -0.410156 10.972656 0 9.828125 0 C 8.679688 0 7.726562 -0.410156 6.96875 -1.234375 C 6.132812 -2.066406 5.71875 -3.054688 5.71875 -4.203125 Z M 5.71875 -34.453125 "/></g></g><g style="fill:#000000;fill-opacity:1;"><g transform="translate(272.541838, 121.126376)"><path style="stroke:none" d=""/></g></g><g style="fill:#000000;fill-opacity:1;"><g transform="translate(291.532435, 121.126376)"><path style="stroke:none" d="M 14.5 -43.234375 L 14.5 -4.109375 C 14.5 -2.960938 14.085938 -2.003906 13.265625 -1.234375 C 12.441406 -0.410156 11.457031 0 10.3125 0 C 9.164062 0 8.207031 -0.410156 7.4375 -1.234375 C 6.613281 -2.003906 6.203125 -2.960938 6.203125 -4.109375 L 6.203125 -50.015625 C 6.203125 -51.734375 6.804688 -53.226562 8.015625 -54.5 C 9.222656 -55.707031 10.6875 -56.3125 12.40625 -56.3125 C 14.695312 -56.3125 16.382812 -55.453125 17.46875 -53.734375 L 45.328125 -12.59375 L 45.328125 -52.203125 C 45.328125 -53.347656 45.742188 -54.332031 46.578125 -55.15625 C 47.398438 -55.925781 48.382812 -56.3125 49.53125 -56.3125 C 50.675781 -56.3125 51.660156 -55.925781 52.484375 -55.15625 C 53.253906 -54.332031 53.640625 -53.347656 53.640625 -52.203125 L 53.640625 -6.296875 C 53.640625 -4.578125 53.035156 -3.113281 51.828125 -1.90625 C 50.617188 -0.632812 49.15625 0 47.4375 0 C 45.332031 0 43.644531 -0.859375 42.375 -2.578125 Z M 14.5 -43.234375 "/></g></g><g style="fill:#000000;fill-opacity:1;"><g transform="translate(351.367116, 121.126376)"><path style="stroke:none" d="M 30.921875 -4.109375 C 27.742188 -0.984375 23.226562 0.578125 17.375 0.578125 L 16.21875 0.578125 C 15.644531 0.578125 14.976562 0.507812 14.21875 0.375 C 13.394531 0.25 12.347656 -0.0664062 11.078125 -0.578125 C 9.796875 -1.085938 8.648438 -1.785156 7.640625 -2.671875 C 6.617188 -3.492188 5.726562 -4.734375 4.96875 -6.390625 C 4.195312 -8.046875 3.8125 -9.988281 3.8125 -12.21875 C 3.8125 -15.59375 4.894531 -18.390625 7.0625 -20.609375 C 9.226562 -22.773438 12.378906 -23.859375 16.515625 -23.859375 C 22.046875 -23.859375 26.847656 -22.554688 30.921875 -19.953125 L 30.921875 -23.09375 C 30.921875 -25.769531 29.9375 -27.835938 27.96875 -29.296875 C 25.925781 -30.703125 22.234375 -31.40625 16.890625 -31.40625 C 15.234375 -31.40625 13.359375 -31.210938 11.265625 -30.828125 C 10.242188 -30.828125 9.382812 -31.175781 8.6875 -31.875 C 7.988281 -32.507812 7.640625 -33.367188 7.640625 -34.453125 C 7.640625 -36.421875 8.53125 -37.628906 10.3125 -38.078125 C 12.914062 -38.835938 16.316406 -39.21875 20.515625 -39.21875 C 26.429688 -39.21875 31.046875 -37.851562 34.359375 -35.125 C 37.597656 -32.382812 39.21875 -28.46875 39.21875 -23.375 L 39.21875 -4.109375 C 39.21875 -2.960938 38.804688 -2.003906 37.984375 -1.234375 C 37.160156 -0.410156 36.175781 0 35.03125 0 C 33.882812 0 32.925781 -0.410156 32.15625 -1.234375 C 31.332031 -2.003906 30.921875 -2.960938 30.921875 -4.109375 Z M 30.921875 -13.171875 C 28.566406 -15.398438 25.128906 -16.515625 20.609375 -16.515625 C 17.242188 -16.515625 14.988281 -16.128906 13.84375 -15.359375 C 12.695312 -14.597656 12.125 -13.457031 12.125 -11.9375 C 12.125 -8.8125 14.953125 -7.25 20.609375 -7.25 C 22.960938 -7.25 25 -7.566406 26.71875 -8.203125 C 28.4375 -8.773438 29.582031 -9.347656 30.15625 -9.921875 L 30.921875 -10.875 Z M 30.921875 -13.171875 "/></g></g><g style="fill:#000000;fill-opacity:1;"><g transform="translate(396.31472, 121.126376)"><path style="stroke:none" d="M 6.203125 -52.109375 C 6.203125 -53.253906 6.613281 -54.238281 7.4375 -55.0625 C 8.207031 -55.894531 9.164062 -56.3125 10.3125 -56.3125 C 11.457031 -56.3125 12.441406 -55.894531 13.265625 -55.0625 C 14.085938 -54.238281 14.5 -53.253906 14.5 -52.109375 L 14.5 -4.203125 C 14.5 -3.054688 14.085938 -2.066406 13.265625 -1.234375 C 12.441406 -0.410156 11.457031 0 10.3125 0 C 9.164062 0 8.207031 -0.410156 7.4375 -1.234375 C 6.613281 -2.066406 6.203125 -3.054688 6.203125 -4.203125 Z M 6.203125 -52.109375 "/></g></g><g style="fill:#000000;fill-opacity:1;"><g transform="translate(417.023055, 121.126376)"><path style="stroke:none" d="M 6.203125 -52.109375 C 6.203125 -53.253906 6.613281 -54.238281 7.4375 -55.0625 C 8.207031 -55.894531 9.164062 -56.3125 10.3125 -56.3125 C 11.457031 -56.3125 12.441406 -55.894531 13.265625 -55.0625 C 14.085938 -54.238281 14.5 -53.253906 14.5 -52.109375 L 14.5 -4.203125 C 14.5 -3.054688 14.085938 -2.066406 13.265625 -1.234375 C 12.441406 -0.410156 11.457031 0 10.3125 0 C 9.164062 0 8.207031 -0.410156 7.4375 -1.234375 C 6.613281 -2.066406 6.203125 -3.054688 6.203125 -4.203125 Z M 6.203125 -52.109375 "/></g></g></g></svg>