<svg xmlns="http://www.w3.org/2000/svg" xmlns:xlink="http://www.w3.org/1999/xlink" width="835" zoomAndPan="magnify" viewBox="0 0 626.25 651.749981" height="869" preserveAspectRatio="xMidYMid meet" version="1.2"><defs><clipPath id="c90bfe3cec"><path d="M 195 220.175781 L 430 220.175781 L 430 430.648438 L 195 430.648438 Z M 195 220.175781 "/></clipPath><clipPath id="a90a23d877"><path d="M 380.699219 233.148438 L 426.386719 312.25 C 431.023438 320.277344 431.023438 330.167969 426.386719 338.195312 L 380.699219 417.296875 C 376.058594 425.324219 367.492188 430.269531 358.222656 430.269531 L 266.832031 430.269531 C 257.558594 430.269531 248.992188 425.324219 244.355469 417.296875 L 198.664062 338.195312 C 194.027344 330.167969 194.027344 320.277344 198.664062 312.25 L 244.355469 233.148438 C 248.992188 225.121094 257.558594 220.175781 266.832031 220.175781 L 358.222656 220.175781 C 367.492188 220.175781 376.058594 225.121094 380.699219 233.148438 Z M 380.699219 233.148438 "/></clipPath><clipPath id="927ed9671a"><path d="M 195 0.265625 L 430 0.265625 L 430 210.738281 L 195 210.738281 Z M 195 0.265625 "/></clipPath><clipPath id="66264073bc"><path d="M 380.699219 13.238281 L 426.386719 92.339844 C 431.023438 100.367188 431.023438 110.257812 426.386719 118.285156 L 380.699219 197.386719 C 376.058594 205.414062 367.492188 210.359375 358.222656 210.359375 L 266.832031 210.359375 C 257.558594 210.359375 248.992188 205.414062 244.355469 197.386719 L 198.664062 118.285156 C 194.027344 110.257812 194.027344 100.367188 198.664062 92.339844 L 244.355469 13.238281 C 248.992188 5.210938 257.558594 0.265625 266.832031 0.265625 L 358.222656 0.265625 C 367.492188 0.265625 376.058594 5.210938 380.699219 13.238281 Z M 380.699219 13.238281 "/></clipPath><clipPath id="3e40a68e36"><path d="M 386 332.902344 L 621 332.902344 L 621 543 L 386 543 Z M 386 332.902344 "/></clipPath><clipPath id="180f176932"><path d="M 571.722656 345.878906 L 617.410156 424.976562 C 622.046875 433.003906 622.046875 442.898438 617.410156 450.925781 L 571.722656 530.027344 C 567.082031 538.054688 558.515625 543 549.246094 543 L 457.855469 543 C 448.582031 543 440.015625 538.054688 435.378906 530.027344 L 389.6875 450.925781 C 385.050781 442.898438 385.050781 433.003906 389.6875 424.976562 L 435.378906 345.878906 C 440.015625 337.847656 448.582031 332.902344 457.855469 332.902344 L 549.246094 332.902344 C 558.515625 332.902344 567.082031 337.847656 571.722656 345.878906 Z M 571.722656 345.878906 "/></clipPath><clipPath id="e0e5323676"><path d="M 195 440.390625 L 430 440.390625 L 430 650.863281 L 195 650.863281 Z M 195 440.390625 "/></clipPath><clipPath id="2731c6a9c6"><path d="M 380.699219 453.363281 L 426.386719 532.464844 C 431.023438 540.492188 431.023438 550.382812 426.386719 558.410156 L 380.699219 637.511719 C 376.058594 645.539062 367.492188 650.484375 358.222656 650.484375 L 266.832031 650.484375 C 257.558594 650.484375 248.992188 645.539062 244.355469 637.511719 L 198.664062 558.410156 C 194.027344 550.382812 194.027344 540.492188 198.664062 532.464844 L 244.355469 453.363281 C 248.992188 445.335938 257.558594 440.390625 266.832031 440.390625 L 358.222656 440.390625 C 367.492188 440.390625 376.058594 445.335938 380.699219 453.363281 Z M 380.699219 453.363281 "/></clipPath><clipPath id="ae0ac96890"><path d="M 386 111.941406 L 621 111.941406 L 621 322.414062 L 386 322.414062 Z M 386 111.941406 "/></clipPath><clipPath id="ebaa17920b"><path d="M 571.722656 124.914062 L 617.410156 204.015625 C 622.046875 212.042969 622.046875 221.933594 617.410156 229.960938 L 571.722656 309.0625 C 567.082031 317.089844 558.515625 322.035156 549.246094 322.035156 L 457.855469 322.035156 C 448.582031 322.035156 440.015625 317.089844 435.378906 309.0625 L 389.6875 229.960938 C 385.050781 221.933594 385.050781 212.042969 389.6875 204.015625 L 435.378906 124.914062 C 440.015625 116.886719 448.582031 111.941406 457.855469 111.941406 L 549.246094 111.941406 C 558.515625 111.941406 567.082031 116.886719 571.722656 124.914062 Z M 571.722656 124.914062 "/></clipPath><clipPath id="dc5c91e4ee"><path d="M 4 329.90625 L 239 329.90625 L 239 540.382812 L 4 540.382812 Z M 4 329.90625 "/></clipPath><clipPath id="f10e4ded41"><path d="M 189.527344 342.878906 L 235.214844 421.980469 C 239.851562 430.007812 239.851562 439.902344 235.214844 447.929688 L 189.527344 527.03125 C 184.886719 535.058594 176.320312 540.003906 167.050781 540.003906 L 75.660156 540.003906 C 66.386719 540.003906 57.820312 535.058594 53.183594 527.03125 L 7.492188 447.929688 C 2.855469 439.902344 2.855469 430.007812 7.492188 421.980469 L 53.183594 342.878906 C 57.820312 334.851562 66.386719 329.90625 75.660156 329.90625 L 167.050781 329.90625 C 176.320312 329.90625 184.886719 334.851562 189.527344 342.878906 Z M 189.527344 342.878906 "/></clipPath><clipPath id="7a01840cc3"><path d="M 4 109.25 L 239 109.25 L 239 319.722656 L 4 319.722656 Z M 4 109.25 "/></clipPath><clipPath id="7f1b383635"><path d="M 189.527344 122.222656 L 235.214844 201.324219 C 239.851562 209.351562 239.851562 219.242188 235.214844 227.269531 L 189.527344 306.371094 C 184.886719 314.398438 176.320312 319.34375 167.050781 319.34375 L 75.660156 319.34375 C 66.386719 319.34375 57.820312 314.398438 53.183594 306.371094 L 7.492188 227.269531 C 2.855469 219.242188 2.855469 209.351562 7.492188 201.324219 L 53.183594 122.222656 C 57.820312 114.191406 66.386719 109.25 75.660156 109.25 L 167.050781 109.25 C 176.320312 109.25 184.886719 114.191406 189.527344 122.222656 Z M 189.527344 122.222656 "/></clipPath></defs><g id="f551b97d20"><g clip-rule="nonzero" clip-path="url(#c90bfe3cec)"><g clip-rule="nonzero" clip-path="url(#a90a23d877)"><path style=" stroke:none;fill-rule:nonzero;fill:#ffde59;fill-opacity:1;" d="M 191.171875 220.175781 L 433.710938 220.175781 L 433.710938 430.648438 L 191.171875 430.648438 Z M 191.171875 220.175781 "/></g></g><g clip-rule="nonzero" clip-path="url(#927ed9671a)"><g clip-rule="nonzero" clip-path="url(#66264073bc)"><path style=" stroke:none;fill-rule:nonzero;fill:#545454;fill-opacity:1;" d="M 191.171875 0.265625 L 433.710938 0.265625 L 433.710938 210.738281 L 191.171875 210.738281 Z M 191.171875 0.265625 "/></g></g><g clip-rule="nonzero" clip-path="url(#3e40a68e36)"><g clip-rule="nonzero" clip-path="url(#180f176932)"><path style=" stroke:none;fill-rule:nonzero;fill:#545454;fill-opacity:1;" d="M 382.195312 332.902344 L 624.734375 332.902344 L 624.734375 543.378906 L 382.195312 543.378906 Z M 382.195312 332.902344 "/></g></g><g clip-rule="nonzero" clip-path="url(#e0e5323676)"><g clip-rule="nonzero" clip-path="url(#2731c6a9c6)"><path style=" stroke:none;fill-rule:nonzero;fill:#545454;fill-opacity:1;" d="M 191.171875 440.390625 L 433.710938 440.390625 L 433.710938 650.863281 L 191.171875 650.863281 Z M 191.171875 440.390625 "/></g></g><g clip-rule="nonzero" clip-path="url(#ae0ac96890)"><g clip-rule="nonzero" clip-path="url(#ebaa17920b)"><path style=" stroke:none;fill-rule:nonzero;fill:#545454;fill-opacity:1;" d="M 382.195312 111.941406 L 624.734375 111.941406 L 624.734375 322.414062 L 382.195312 322.414062 Z M 382.195312 111.941406 "/></g></g><g clip-rule="nonzero" clip-path="url(#dc5c91e4ee)"><g clip-rule="nonzero" clip-path="url(#f10e4ded41)"><path style=" stroke:none;fill-rule:nonzero;fill:#545454;fill-opacity:1;" d="M 0 329.90625 L 242.539062 329.90625 L 242.539062 540.382812 L 0 540.382812 Z M 0 329.90625 "/></g></g><g clip-rule="nonzero" clip-path="url(#7a01840cc3)"><g clip-rule="nonzero" clip-path="url(#7f1b383635)"><path style=" stroke:none;fill-rule:nonzero;fill:#545454;fill-opacity:1;" d="M 0 109.25 L 242.539062 109.25 L 242.539062 319.722656 L 0 319.722656 Z M 0 109.25 "/></g></g></g></svg>