<svg xmlns="http://www.w3.org/2000/svg" xmlns:xlink="http://www.w3.org/1999/xlink" width="515" zoomAndPan="magnify" viewBox="0 0 386.25 123.750003" height="165" preserveAspectRatio="xMidYMid meet" version="1.2"><defs><clipPath id="fcb2c67e20"><path d="M 0.015625 0.101562 L 122.917969 0.101562 L 122.917969 123.007812 L 0.015625 123.007812 Z M 0.015625 0.101562 "/></clipPath><clipPath id="3b765a2197"><path d="M 122.917969 15.070312 L 122.917969 108.035156 C 122.917969 116.304688 116.21875 123.007812 107.949219 123.007812 L 14.984375 123.007812 C 6.71875 123.007812 0.015625 116.304688 0.015625 108.035156 L 0.015625 15.070312 C 0.015625 6.804688 6.71875 0.101562 14.984375 0.101562 L 107.949219 0.101562 C 116.21875 0.101562 122.917969 6.804688 122.917969 15.070312 Z M 122.917969 15.070312 "/></clipPath><clipPath id="f8a8a04137"><path d="M 131.007812 0.101562 L 253.910156 0.101562 L 253.910156 123.007812 L 131.007812 123.007812 Z M 131.007812 0.101562 "/></clipPath><clipPath id="56c82cad68"><path d="M 253.910156 15.070312 L 253.910156 108.035156 C 253.910156 116.304688 247.210938 123.007812 238.941406 123.007812 L 145.976562 123.007812 C 137.710938 123.007812 131.007812 116.304688 131.007812 108.035156 L 131.007812 15.070312 C 131.007812 6.804688 137.710938 0.101562 145.976562 0.101562 L 238.941406 0.101562 C 247.210938 0.101562 253.910156 6.804688 253.910156 15.070312 Z M 253.910156 15.070312 "/></clipPath><clipPath id="19e6441fd3"><path d="M 262 0 L 384.902344 0 L 384.902344 122.90625 L 262 122.90625 Z M 262 0 "/></clipPath><clipPath id="554598f74d"><path d="M 384.902344 14.96875 L 384.902344 107.933594 C 384.902344 116.203125 378.203125 122.90625 369.933594 122.90625 L 276.96875 122.90625 C 268.699219 122.90625 262 116.203125 262 107.933594 L 262 14.96875 C 262 6.703125 268.699219 0 276.96875 0 L 369.933594 0 C 378.203125 0 384.902344 6.703125 384.902344 14.96875 Z M 384.902344 14.96875 "/></clipPath></defs><g id="b7b0aa91c3"><g clip-rule="nonzero" clip-path="url(#fcb2c67e20)"><g clip-rule="nonzero" clip-path="url(#3b765a2197)"><path style=" stroke:none;fill-rule:nonzero;fill:#545454;fill-opacity:1;" d="M 0.015625 0.101562 L 122.917969 0.101562 L 122.917969 123.007812 L 0.015625 123.007812 Z M 0.015625 0.101562 "/></g></g><g clip-rule="nonzero" clip-path="url(#f8a8a04137)"><g clip-rule="nonzero" clip-path="url(#56c82cad68)"><path style=" stroke:none;fill-rule:nonzero;fill:#ffde59;fill-opacity:1;" d="M 131.007812 0.101562 L 253.910156 0.101562 L 253.910156 123.007812 L 131.007812 123.007812 Z M 131.007812 0.101562 "/></g></g><g clip-rule="nonzero" clip-path="url(#19e6441fd3)"><g clip-rule="nonzero" clip-path="url(#554598f74d)"><path style=" stroke:none;fill-rule:nonzero;fill:#00bf63;fill-opacity:1;" d="M 262 0 L 384.902344 0 L 384.902344 122.90625 L 262 122.90625 Z M 262 0 "/></g></g></g></svg>