<svg xmlns="http://www.w3.org/2000/svg" xmlns:xlink="http://www.w3.org/1999/xlink" width="515" zoomAndPan="magnify" viewBox="0 0 386.25 392.249991" height="523" preserveAspectRatio="xMidYMid meet" version="1.2"><defs><clipPath id="397510539d"><path d="M 131.148438 0.00390625 L 254.0625 0.00390625 L 254.0625 122.921875 L 131.148438 122.921875 Z M 131.148438 0.00390625 "/></clipPath><clipPath id="7a08337b4f"><path d="M 254.0625 14.976562 L 254.0625 107.949219 C 254.0625 116.21875 247.359375 122.921875 239.09375 122.921875 L 146.121094 122.921875 C 137.851562 122.921875 131.148438 116.21875 131.148438 107.949219 L 131.148438 14.976562 C 131.148438 6.707031 137.851562 0.00390625 146.121094 0.00390625 L 239.09375 0.00390625 C 247.359375 0.00390625 254.0625 6.707031 254.0625 14.976562 Z M 254.0625 14.976562 "/></clipPath><clipPath id="745ef17071"><path d="M 0.144531 134.351562 L 123.0625 134.351562 L 123.0625 257.265625 L 0.144531 257.265625 Z M 0.144531 134.351562 "/></clipPath><clipPath id="23e3e16666"><path d="M 123.0625 149.324219 L 123.0625 242.292969 C 123.0625 250.5625 116.359375 257.265625 108.089844 257.265625 L 15.117188 257.265625 C 6.847656 257.265625 0.144531 250.5625 0.144531 242.292969 L 0.144531 149.324219 C 0.144531 141.054688 6.847656 134.351562 15.117188 134.351562 L 108.089844 134.351562 C 116.359375 134.351562 123.0625 141.054688 123.0625 149.324219 Z M 123.0625 149.324219 "/></clipPath><clipPath id="b729d65a23"><path d="M 131.148438 134.351562 L 254.0625 134.351562 L 254.0625 257.265625 L 131.148438 257.265625 Z M 131.148438 134.351562 "/></clipPath><clipPath id="2a73fcbde6"><path d="M 254.0625 149.324219 L 254.0625 242.292969 C 254.0625 250.5625 247.359375 257.265625 239.09375 257.265625 L 146.121094 257.265625 C 137.851562 257.265625 131.148438 250.5625 131.148438 242.292969 L 131.148438 149.324219 C 131.148438 141.054688 137.851562 134.351562 146.121094 134.351562 L 239.09375 134.351562 C 247.359375 134.351562 254.0625 141.054688 254.0625 149.324219 Z M 254.0625 149.324219 "/></clipPath><clipPath id="4f430afd25"><path d="M 262.152344 134.25 L 385.066406 134.25 L 385.066406 257.164062 L 262.152344 257.164062 Z M 262.152344 134.25 "/></clipPath><clipPath id="def7dde013"><path d="M 385.066406 149.222656 L 385.066406 242.191406 C 385.066406 250.460938 378.363281 257.164062 370.09375 257.164062 L 277.121094 257.164062 C 268.851562 257.164062 262.152344 250.460938 262.152344 242.191406 L 262.152344 149.222656 C 262.152344 140.953125 268.851562 134.25 277.121094 134.25 L 370.09375 134.25 C 378.363281 134.25 385.066406 140.953125 385.066406 149.222656 Z M 385.066406 149.222656 "/></clipPath><clipPath id="27379a9759"><path d="M 0.144531 268.492188 L 123.0625 268.492188 L 123.0625 391.410156 L 0.144531 391.410156 Z M 0.144531 268.492188 "/></clipPath><clipPath id="82eca70515"><path d="M 123.0625 283.464844 L 123.0625 376.4375 C 123.0625 384.707031 116.359375 391.410156 108.089844 391.410156 L 15.117188 391.410156 C 6.847656 391.410156 0.144531 384.707031 0.144531 376.4375 L 0.144531 283.464844 C 0.144531 275.195312 6.847656 268.492188 15.117188 268.492188 L 108.089844 268.492188 C 116.359375 268.492188 123.0625 275.195312 123.0625 283.464844 Z M 123.0625 283.464844 "/></clipPath><clipPath id="20a996ef3a"><path d="M 131.148438 268.492188 L 254.0625 268.492188 L 254.0625 391.410156 L 131.148438 391.410156 Z M 131.148438 268.492188 "/></clipPath><clipPath id="c0f677aabd"><path d="M 254.0625 283.464844 L 254.0625 376.4375 C 254.0625 384.707031 247.359375 391.410156 239.09375 391.410156 L 146.121094 391.410156 C 137.851562 391.410156 131.148438 384.707031 131.148438 376.4375 L 131.148438 283.464844 C 131.148438 275.195312 137.851562 268.492188 146.121094 268.492188 L 239.09375 268.492188 C 247.359375 268.492188 254.0625 275.195312 254.0625 283.464844 Z M 254.0625 283.464844 "/></clipPath><clipPath id="97a1235667"><path d="M 262.152344 268.492188 L 385.066406 268.492188 L 385.066406 391.410156 L 262.152344 391.410156 Z M 262.152344 268.492188 "/></clipPath><clipPath id="a26d389099"><path d="M 385.066406 283.464844 L 385.066406 376.4375 C 385.066406 384.707031 378.363281 391.410156 370.09375 391.410156 L 277.121094 391.410156 C 268.851562 391.410156 262.152344 384.707031 262.152344 376.4375 L 262.152344 283.464844 C 262.152344 275.195312 268.851562 268.492188 277.121094 268.492188 L 370.09375 268.492188 C 378.363281 268.492188 385.066406 275.195312 385.066406 283.464844 Z M 385.066406 283.464844 "/></clipPath><clipPath id="6c6d1b7917"><path d="M 0 0.207031 L 122.914062 0.207031 L 122.914062 123.125 L 0 123.125 Z M 0 0.207031 "/></clipPath><clipPath id="9f3a5971ce"><path d="M 122.914062 15.179688 L 122.914062 108.152344 C 122.914062 116.421875 116.210938 123.125 107.945312 123.125 L 14.972656 123.125 C 6.703125 123.125 0 116.421875 0 108.152344 L 0 15.179688 C 0 6.910156 6.703125 0.207031 14.972656 0.207031 L 107.945312 0.207031 C 116.210938 0.207031 122.914062 6.910156 122.914062 15.179688 Z M 122.914062 15.179688 "/></clipPath><clipPath id="0990a2c18e"><path d="M 262.296875 0.00390625 L 385.210938 0.00390625 L 385.210938 122.921875 L 262.296875 122.921875 Z M 262.296875 0.00390625 "/></clipPath><clipPath id="c2c77cd4b3"><path d="M 385.210938 14.976562 L 385.210938 107.949219 C 385.210938 116.21875 378.507812 122.921875 370.242188 122.921875 L 277.269531 122.921875 C 269 122.921875 262.296875 116.21875 262.296875 107.949219 L 262.296875 14.976562 C 262.296875 6.707031 269 0.00390625 277.269531 0.00390625 L 370.242188 0.00390625 C 378.507812 0.00390625 385.210938 6.707031 385.210938 14.976562 Z M 385.210938 14.976562 "/></clipPath></defs><g id="75d2500a6a"><g clip-rule="nonzero" clip-path="url(#397510539d)"><g clip-rule="nonzero" clip-path="url(#7a08337b4f)"><path style=" stroke:none;fill-rule:nonzero;fill:#545454;fill-opacity:1;" d="M 131.148438 0.00390625 L 254.0625 0.00390625 L 254.0625 122.921875 L 131.148438 122.921875 Z M 131.148438 0.00390625 "/></g></g><g clip-rule="nonzero" clip-path="url(#745ef17071)"><g clip-rule="nonzero" clip-path="url(#23e3e16666)"><path style=" stroke:none;fill-rule:nonzero;fill:#545454;fill-opacity:1;" d="M 0.144531 134.351562 L 123.0625 134.351562 L 123.0625 257.265625 L 0.144531 257.265625 Z M 0.144531 134.351562 "/></g></g><g clip-rule="nonzero" clip-path="url(#b729d65a23)"><g clip-rule="nonzero" clip-path="url(#2a73fcbde6)"><path style=" stroke:none;fill-rule:nonzero;fill:#ffde59;fill-opacity:1;" d="M 131.148438 134.351562 L 254.0625 134.351562 L 254.0625 257.265625 L 131.148438 257.265625 Z M 131.148438 134.351562 "/></g></g><g clip-rule="nonzero" clip-path="url(#4f430afd25)"><g clip-rule="nonzero" clip-path="url(#def7dde013)"><path style=" stroke:none;fill-rule:nonzero;fill:#00bf63;fill-opacity:1;" d="M 262.152344 134.25 L 385.066406 134.25 L 385.066406 257.164062 L 262.152344 257.164062 Z M 262.152344 134.25 "/></g></g><g clip-rule="nonzero" clip-path="url(#27379a9759)"><g clip-rule="nonzero" clip-path="url(#82eca70515)"><path style=" stroke:none;fill-rule:nonzero;fill:#00bf63;fill-opacity:1;" d="M 0.144531 268.492188 L 123.0625 268.492188 L 123.0625 391.410156 L 0.144531 391.410156 Z M 0.144531 268.492188 "/></g></g><g clip-rule="nonzero" clip-path="url(#20a996ef3a)"><g clip-rule="nonzero" clip-path="url(#c0f677aabd)"><path style=" stroke:none;fill-rule:nonzero;fill:#00bf63;fill-opacity:1;" d="M 131.148438 268.492188 L 254.0625 268.492188 L 254.0625 391.410156 L 131.148438 391.410156 Z M 131.148438 268.492188 "/></g></g><g clip-rule="nonzero" clip-path="url(#97a1235667)"><g clip-rule="nonzero" clip-path="url(#a26d389099)"><path style=" stroke:none;fill-rule:nonzero;fill:#00bf63;fill-opacity:1;" d="M 262.152344 268.492188 L 385.066406 268.492188 L 385.066406 391.410156 L 262.152344 391.410156 Z M 262.152344 268.492188 "/></g></g><g clip-rule="nonzero" clip-path="url(#6c6d1b7917)"><g clip-rule="nonzero" clip-path="url(#9f3a5971ce)"><path style=" stroke:none;fill-rule:nonzero;fill:#ffde59;fill-opacity:1;" d="M 0 0.207031 L 122.914062 0.207031 L 122.914062 123.125 L 0 123.125 Z M 0 0.207031 "/></g></g><g clip-rule="nonzero" clip-path="url(#0990a2c18e)"><g clip-rule="nonzero" clip-path="url(#c2c77cd4b3)"><path style=" stroke:none;fill-rule:nonzero;fill:#00bf63;fill-opacity:1;" d="M 262.296875 0.00390625 L 385.210938 0.00390625 L 385.210938 122.921875 L 262.296875 122.921875 Z M 262.296875 0.00390625 "/></g></g></g></svg>